# xmcd
#
# Track frame offsets:
#       183
#       12265
#       23985
#       36920
#       49510
#       59663
#       70968
#       80218
#       89648
#       100173
#       110178
#       120533
#
# Disc length: 1742 seconds
#
# Revision: 2
# Processed by: cddbd v1.4PL0 Copyright (c) Steve Scherf et al.
# Submitted via: WhereIsIt 3.25
#
DISCID=aa06cc0c
DTITLE=Jim Reeves - The Collection
DYEAR=1900
DGENRE=
TTITLE0=Mexican Joe
TTITLE1=Yonder Comes A Sucker
TTITLE2=Four Walls
TTITLE3=Bimbo
TTITLE4=Partners
TTITLE5=Anna Maria
TTITLE6=I Know One
TTITLE7=Billy Bayoe
TTITLE8=He'll HaveTo Go
TTITLE9=Stand At Your Window
TTITLE10=Am I Losing You
TTITLE11=I'm Getting Better
EXTD=
EXTT0=
EXTT1=
EXTT2=
EXTT3=
EXTT4=
EXTT5=
EXTT6=
EXTT7=
EXTT8=
EXTT9=
EXTT10=
EXTT11=
PLAYORDER=
